<?xml version="1.0" encoding="iso-8859-1"?>
<!-- Generator: Adobe Illustrator 19.0.0, SVG Export Plug-In . SVG Version: 6.00 Build 0)  -->
<svg version="1.1" id="Capa_1" xmlns="http://www.w3.org/2000/svg" xmlns:xlink="http://www.w3.org/1999/xlink" x="0px" y="0px"
	 viewBox="0 0 368 368" style="enable-background:new 0 0 368 368;" xml:space="preserve">
<g>
	<g>
		<path d="M360,160H128v-40c0-4.424-3.584-8-8-8H64V72c0-4.424-3.584-8-8-8H8c-4.416,0-8,3.576-8,8v224c0,4.424,3.584,8,8,8h48
			c4.416,0,8-3.576,8-8v-40h48v40c0,4.424,3.584,8,8,8h144c4.416,0,8-3.576,8-8v-40h32v40c0,4.424,3.584,8,8,8h48
			c4.416,0,8-3.576,8-8v-48v-80C368,163.576,364.416,160,360,160z M48,288H16V80h32V288z M112,240H64v-64h48V240z M112,160H64v-32
			h48V160z M256,247.984c0,0.008,0,0.016,0,0.016v0.016V288H128V176h128V247.984z M352,288h-32v-32h32V288z M352,240h-40h-40v-64h80
			V240z"/>
	</g>
</g>
<g>
</g>
<g>
</g>
<g>
</g>
<g>
</g>
<g>
</g>
<g>
</g>
<g>
</g>
<g>
</g>
<g>
</g>
<g>
</g>
<g>
</g>
<g>
</g>
<g>
</g>
<g>
</g>
<g>
</g>
</svg>
